<?xml version="1.0" encoding="UTF-8" standalone="no"?>
<!DOCTYPE svg PUBLIC "-//W3C//DTD SVG 1.1//EN" "http://www.w3.org/Graphics/SVG/1.1/DTD/svg11.dtd">
<svg width="100%" height="100%" viewBox="0 0 800 800" version="1.1" xmlns="http://www.w3.org/2000/svg" xmlns:xlink="http://www.w3.org/1999/xlink" xml:space="preserve" xmlns:serif="http://www.serif.com/" style="fill-rule:evenodd;clip-rule:evenodd;stroke-linejoin:round;stroke-miterlimit:2;">
    <g id="view-box" transform="matrix(33.333333,0,0,33.333333,28,-1)">
        <rect x="0" y="0" width="24" height="24" style="fill:none;"/>
    </g>
    <g id="Shape" transform="matrix(38.103503,0,0,38.103503,104.693083,56.014875)">
        <path d="M4.466,19.5C3.113,19.506 1.948,18.506 1.748,17.168L0.009,5.864C0.003,5.826 0,5.788 0,5.75C0,5.339 0.339,5 0.75,5C0.751,5 0.751,5 0.751,5L14.751,5C14.751,5 14.751,5 14.752,5C15.163,5 15.502,5.339 15.502,5.75C15.502,5.788 15.499,5.826 15.493,5.864L13.753,17.164C13.555,18.505 12.389,19.507 11.034,19.5L4.466,19.5ZM11.034,18C11.65,18.003 12.179,17.549 12.27,16.94L13.876,6.5L11.012,6.5L10.489,18L11.034,18ZM8.988,18L9.51,6.5L5.989,6.5L6.512,18L8.988,18ZM3.23,16.94C3.321,17.549 3.851,18.003 4.466,18L5.01,18L4.488,6.5L1.625,6.5L3.23,16.94Z" style="fill:white;fill-rule:nonzero;"/>
    </g>
    <g transform="matrix(1.051209,0,0,1.051209,-53.7391,-57.571725)">
        <path d="M169.261,274.018C161.752,261.535 157.506,247.213 157.506,232C157.506,184.748 198.954,145.506 251,145.506C259.827,145.506 268.364,146.641 276.446,148.753C282.976,145.819 289.896,143.561 297.11,142.074C317.144,92.614 366.391,57.506 424,57.506C459.344,57.506 491.555,70.722 515.786,92.354C520.599,91.72 525.511,91.392 530.5,91.392C574.505,91.392 612.451,116.83 630.03,153.424C665.338,169.475 690.057,205.544 690.057,247.5C690.057,254.696 689.328,261.72 687.944,268.499C686.281,276.644 679.116,282.494 670.803,282.494L184.252,282.494C178.114,282.494 172.425,279.277 169.261,274.018Z" style="fill:white;"/>
    </g>
</svg>
